# xmcd
#
# Track frame offsets:
#	150
#	15681
#	33689
#	51174
#	66609
#	77445
#	92103
#	106020
#	120980
#	135237
#	151537
#	164616
#	180468
#
# Disc length: 2598 seconds
#
# Revision: 0
# Processed by: cddbd v1.5.2PL0 Copyright (c) Steve Scherf et al.
# Submitted via: EasyCDDAExtractor 2010.6.0.0
#
DISCID=990a240d
DTITLE=Various Artist - Baila Country en Linea CD1 and CD 3
DYEAR=1900
DGENRE=Country
TTITLE0=Achy Breaky Heart - Electric Slide
TTITLE1=Chattahoochee - Hoochie Coochie
TTITLE2=King Of The Road - Kinf Of The Road
TTITLE3=Yes! - Rose garden
TTITLE4=Two of a kind, workin' on a full house - Two Step
TTITLE5=Ole Slew Foot - HT Stomp
TTITLE6=Brother Jukebox - Back Track
TTITLE7=Danger at my door - Renegade
TTITLE8=Chasin' that neon rainbow - Cheyenne
TTITLE9=Sticks and Stones - Rodeo
TTITLE10=Runnin' Behind - Heartbrake Express
TTITLE11=Countru Duck - No rompas mas mi corazon
TTITLE12=Country Duck - Arriba, Abajo
EXTD=
EXTT0=
EXTT1=
EXTT2=
EXTT3=
EXTT4=
EXTT5=
EXTT6=
EXTT7=
EXTT8=
EXTT9=
EXTT10=
EXTT11=
EXTT12=
PLAYORDER=
